# xmcd CD database file
#
# Track frame offsets:
#	150
#	23623
#	39292
#	55965
#	72635
#	88240
#	113060
#	135862
#	170635
#	186450
#	210650
#	229873
#	240685
#	259710
#	279047
#	295225
#	304993
#	317668
#
# Disc length: 4472 seconds
#
# Revision: 3
# Processed by: cddbd v1.5.2PL0 Copyright (c) Steve Scherf et al.
# Submitted via: CDex 1.51
#
DISCID=03117612
DTITLE=Ella Fitzgerald - Vol. 255 - Ella Fitzgerald 
DYEAR=1996
DGENRE=Jazz
TTITLE0=In a mellow tone (ELLINGTON)
TTITLE1=Mood Indigo (B. Bigard-Mills-Ellington)
TTITLE2=Squatty roo (Hodges)
TTITLE3=Lush Life (Strayhorn)
TTITLE4=Cotton Tail (Ellington) 
TTITLE5=Prelude to a kiss (Ellington-Mills- Gordon)
TTITLE6=Don't get around much anymore (Ellington- Russel)
TTITLE7=Do nothing till you hear from me (Ellington-Russel)
TTITLE8=Satin Doll (Ellington)
TTITLE9=Sophisticated lady (Ellington -Parish-Mills)
TTITLE10=It don;t mean a thing (If it ain't got that swing) (Ellington-Mills)
TTITLE11=Azure (Ellington-Mills)
TTITLE12=I let a song get out of my heart (Ellington-H. Nemo-Mills.J.  Redmomd)
TTITLE13=Just squeeze me (but don't tease me) (Gaines- Ellington)
TTITLE14=Just a Sittin' and a Rockin' (Strayhorn-Ellington-L Gaines)
TTITLE15=Solitude (E. De lange-Ellington-Mills)
TTITLE16=In a sentimental mood (Ellington-Mills-E.Kurtz)
TTITLE17=Rocks my bed (Ellington)
EXTD=Ella with YEAR: 1996
EXTT0=
EXTT1=
EXTT2=
EXTT3=
EXTT4=
EXTT5=
EXTT6=
EXTT7=
EXTT8=
EXTT9=
EXTT10=
EXTT11=
EXTT12=
EXTT13=
EXTT14=
EXTT15=
EXTT16=
EXTT17=
PLAYORDER=
